HIERARCHY
ROOT reference
{
  OFFSET 0 0 0
  CHANNELS 6 Xposition Yposition Zposition Zrotation Xrotation Yrotation
  JOINT Hips
  {
    OFFSET 356.501 91.4882 232.072
    CHANNELS 3 Zrotation Xrotation Yrotation
    JOINT RightUpLeg
    {
      OFFSET -9.22368 -1.56954 0.0182318
      CHANNELS 3 Zrotation Xrotation Yrotation
      JOINT RightLeg
      {
        OFFSET 0.0168043 -41.8502 0.039304
        CHANNELS 3 Zrotation Xrotation Yrotation
        JOINT RightFoot
        {
          OFFSET -1.24655 -41.4872 1.84727
          CHANNELS 3 Zrotation Xrotation Yrotation
          End Site
          {
            OFFSET 0 -7.69 17.5
          }
        }
      }
    }
    JOINT LeftUpLeg
    {
      OFFSET 9.32755 -1.5915 0.117934
      CHANNELS 3 Zrotation Xrotation Yrotation
      JOINT LeftLeg
      {
        OFFSET 0.115891 -41.8441 0.138627
        CHANNELS 3 Zrotation Xrotation Yrotation
        JOINT LeftFoot
        {
          OFFSET -0.00258131 -42.0603 -2.16995
          CHANNELS 3 Zrotation Xrotation Yrotation
          End Site
          {
            OFFSET 0 -7.69 17.5
          }
        }
      }
    }
    JOINT Spine
    {
      OFFSET 0.0618908 14.3142 0.263402
      CHANNELS 3 Zrotation Xrotation Yrotation
      JOINT Spine1
      {
        OFFSET 0.00953893 9.71784 0.0772804
        CHANNELS 3 Zrotation Xrotation Yrotation
        JOINT Spine2
        {
          OFFSET 0.0659978 10.1164 -0.109334
          CHANNELS 3 Zrotation Xrotation Yrotation
          JOINT Spine3
          {
            OFFSET 0.00354353 9.7233 0.0181573
            CHANNELS 3 Zrotation Xrotation Yrotation
            JOINT Neck
            {
              OFFSET -0.106539 10.3631 0.143191
              CHANNELS 3 Zrotation Xrotation Yrotation
              JOINT Head
              {
                OFFSET 0.0687213 9.49492 0.178169
                CHANNELS 3 Zrotation Xrotation Yrotation
                End Site
                {
                  OFFSET 0 15.95 0
                }
              }
            }
            JOINT RightShoulder
            {
              OFFSET -3.17341 6.93407 0.0508814
              CHANNELS 3 Zrotation Xrotation Yrotation
              JOINT RightArm
              {
                OFFSET -12.8122 0.02699 0.0058978
                CHANNELS 3 Zrotation Xrotation Yrotation
                JOINT RightForeArm
                {
                  OFFSET -26.4689 -0.0132424 0.0432591
                  CHANNELS 3 Zrotation Xrotation Yrotation
                  JOINT RightHand
                  {
                    OFFSET -25.9762 -0.0747187 0.0544432
                    CHANNELS 3 Zrotation Xrotation Yrotation
                    JOINT RightHandThumb1
                    {
                      OFFSET -2.48905 0.190105 3.12053
                      CHANNELS 3 Zrotation Xrotation Yrotation
                      JOINT RightHandThumb2
                      {
                        OFFSET -3.68274 0 0
                        CHANNELS 3 Zrotation Xrotation Yrotation
                        JOINT RightHandThumb3
                        {
                          OFFSET -2.55832 0 0
                          CHANNELS 3 Zrotation Xrotation Yrotation
                          End Site
                          {
                            OFFSET -2.194 0 0
                          }
                        }
                      }
                    }
                    JOINT RightInHandIndex
                    {
                      OFFSET -3.22368 0.508421 1.97842
                      CHANNELS 3 Zrotation Xrotation Yrotation
                      JOINT RightHandIndex1
                      {
                        OFFSET -5.21684 -0.091368 0.999158
                        CHANNELS 3 Zrotation Xrotation Yrotation
                        JOINT RightHandIndex2
                        {
                          OFFSET -3.61937 0 0
                          CHANNELS 3 Zrotation Xrotation Yrotation
                          JOINT RightHandIndex3
                          {
                            OFFSET -2.0521 0 0
                            CHANNELS 3 Zrotation Xrotation Yrotation
                            End Site
                            {
                              OFFSET -1.805 0 0
                            }
                          }
                        }
                      }
                    }
                    JOINT RightInHandMiddle
                    {
                      OFFSET -3.38211 0.517263 0.756737
                      CHANNELS 3 Zrotation Xrotation Yrotation
                      JOINT RightHandMiddle1
                      {
                        OFFSET -5.17411 -0.084 0.313895
                        CHANNELS 3 Zrotation Xrotation Yrotation
                        JOINT RightHandMiddle2
                        {
                          OFFSET -3.94947 0 0
                          CHANNELS 3 Zrotation Xrotation Yrotation
                          JOINT RightHandMiddle3
                          {
                            OFFSET -2.47579 0 0
                            CHANNELS 3 Zrotation Xrotation Yrotation
                            End Site
                            {
                              OFFSET -1.975 0 0
                            }
                          }
                        }
                      }
                    }
                    JOINT RightInHandRing
                    {
                      OFFSET -3.36516 0.537895 -0.128947
                      CHANNELS 3 Zrotation Xrotation Yrotation
                      JOINT RightHandRing1
                      {
                        OFFSET -4.63474 -0.022105 -0.478947
                        CHANNELS 3 Zrotation Xrotation Yrotation
                        JOINT RightHandRing2
                        {
                          OFFSET -3.44238 0 0
                          CHANNELS 3 Zrotation Xrotation Yrotation
                          JOINT RightHandRing3
                          {
                            OFFSET -2.3881 0 0
                            CHANNELS 3 Zrotation Xrotation Yrotation
                            End Site
                            {
                              OFFSET -1.857 0 0
                            }
                          }
                        }
                      }
                    }
                    JOINT RightInHandPinky
                    {
                      OFFSET -3.16105 0.469368 -1.20179
                      CHANNELS 3 Zrotation Xrotation Yrotation
                      JOINT RightHandPinky1
                      {
                        OFFSET -4.14105 -0.022105 -1.09053
                        CHANNELS 3 Zrotation Xrotation Yrotation
                        JOINT RightHandPinky2
                        {
                          OFFSET -2.75653 0 0
                          CHANNELS 3 Zrotation Xrotation Yrotation
                          JOINT RightHandPinky3
                          {
                            OFFSET -1.74189 0 0
                            CHANNELS 3 Zrotation Xrotation Yrotation
                            End Site
                            {
                              OFFSET -1.645 0 0
                            }
                          }
                        }
                      }
                    }
                  }
                }
              }
            }
            JOINT LeftShoulder
            {
              OFFSET 3.13763 6.93537 0.265461
              CHANNELS 3 Zrotation Xrotation Yrotation
              JOINT LeftArm
              {
                OFFSET 12.4516 -0.0856895 0.350644
                CHANNELS 3 Zrotation Xrotation Yrotation
                JOINT LeftForeArm
                {
                  OFFSET 26.6962 -0.139113 0.0812581
                  CHANNELS 3 Zrotation Xrotation Yrotation
                  JOINT LeftHand
                  {
                    OFFSET 25.9561 0.0264111 -0.243705
                    CHANNELS 3 Zrotation Xrotation Yrotation
                    JOINT LeftHandThumb1
                    {
                      OFFSET 2.48905 0.190105 3.12053
                      CHANNELS 3 Zrotation Xrotation Yrotation
                      JOINT LeftHandThumb2
                      {
                        OFFSET 3.68274 0 0
                        CHANNELS 3 Zrotation Xrotation Yrotation
                        JOINT LeftHandThumb3
                        {
                          OFFSET 2.55832 0 0
                          CHANNELS 3 Zrotation Xrotation Yrotation
                          End Site
                          {
                            OFFSET 2.194 0 0
                          }
                        }
                      }
                    }
                    JOINT LeftInHandIndex
                    {
                      OFFSET 3.22368 0.508421 1.97842
                      CHANNELS 3 Zrotation Xrotation Yrotation
                      JOINT LeftHandIndex1
                      {
                        OFFSET 5.21684 -0.091368 0.999158
                        CHANNELS 3 Zrotation Xrotation Yrotation
                        JOINT LeftHandIndex2
                        {
                          OFFSET 3.61937 0 0
                          CHANNELS 3 Zrotation Xrotation Yrotation
                          JOINT LeftHandIndex3
                          {
                            OFFSET 2.0521 0 0
                            CHANNELS 3 Zrotation Xrotation Yrotation
                            End Site
                            {
                              OFFSET 1.805 0 0
                            }
                          }
                        }
                      }
                    }
                    JOINT LeftInHandMiddle
                    {
                      OFFSET 3.38211 0.517263 0.756737
                      CHANNELS 3 Zrotation Xrotation Yrotation
                      JOINT LeftHandMiddle1
                      {
                        OFFSET 5.17411 -0.084 0.313895
                        CHANNELS 3 Zrotation Xrotation Yrotation
                        JOINT LeftHandMiddle2
                        {
                          OFFSET 3.94947 0 0
                          CHANNELS 3 Zrotation Xrotation Yrotation
                          JOINT LeftHandMiddle3
                          {
                            OFFSET 2.47579 0 0
                            CHANNELS 3 Zrotation Xrotation Yrotation
                            End Site
                            {
                              OFFSET 1.975 0 0
                            }
                          }
                        }
                      }
                    }
                    JOINT LeftInHandRing
                    {
                      OFFSET 3.36516 0.537895 -0.128947
                      CHANNELS 3 Zrotation Xrotation Yrotation
                      JOINT LeftHandRing1
                      {
                        OFFSET 4.63474 -0.022105 -0.478947
                        CHANNELS 3 Zrotation Xrotation Yrotation
                        JOINT LeftHandRing2
                        {
                          OFFSET 3.44238 0 0
                          CHANNELS 3 Zrotation Xrotation Yrotation
                          JOINT LeftHandRing3
                          {
                            OFFSET 2.3881 0 0
                            CHANNELS 3 Zrotation Xrotation Yrotation
                            End Site
                            {
                              OFFSET 1.857 0 0
                            }
                          }
                        }
                      }
                    }
                    JOINT LeftInHandPinky
                    {
                      OFFSET 3.16105 0.469368 -1.20179
                      CHANNELS 3 Zrotation Xrotation Yrotation
                      JOINT LeftHandPinky1
                      {
                        OFFSET 4.14105 -0.022105 -1.09053
                        CHANNELS 3 Zrotation Xrotation Yrotation
                        JOINT LeftHandPinky2
                        {
                          OFFSET 2.75653 0 0
                          CHANNELS 3 Zrotation Xrotation Yrotation
                          JOINT LeftHandPinky3
                          {
                            OFFSET 1.74189 0 0
                            CHANNELS 3 Zrotation Xrotation Yrotation
                            End Site
                            {
                              OFFSET 1.645 0 0
                            }
                          }
                        }
                      }
                    }
                  }
                }
              }
            }
          }
        }
      }
    }
  }
}
MOTION
Frames:	7
Frame Time:	0.00833333
0 0 0 0 0 -0 23.1352 -0.783981 -133.62 33.5825 -33.401 33.0721 -8.09972 12.4519 -0.908892 7.41093 9.8524 45.955 30.2649 -6.95879 18.9411 -19.6841 35.8576 17.5329 3.30092 -25.929 20.0575 -6.59607 -2.0713 -10.4979 -1.61583 -0.783599 -2.56148 -2.68825 -1.38779 -4.17141 -0.737206 -0.514993 2.62437 -0.434717 -8.08982 38.4255 -11.6451 7.22675 26.5573 3.70603 2.10072 1.84348 40.4354 -61.739 6.93754 42.0809 0.728242 117.194 7.08364 -20.9008 4.90338 28.184 10.7294 19.1592 -1.2997e-14 -1.59028e-15 -10 -3.08396e-15 -3.18055e-15 -10 1.78906e-15 -3.18055e-15 3.18055e-15 19.9818 0.871897 2.3964 24 -1.59028e-15 1.59028e-15 20 -7.95139e-15 9.54166e-15 1.78906e-15 -3.18055e-15 3.18055e-15 20 -1.59028e-14 1.35174e-14 24 -1.59028e-15 4.77083e-15 20 -1.59028e-15 1.59028e-15 1.78906e-15 -3.18055e-15 3.18055e-15 19.9748 -1.02565 -2.81938 24 0 1.11319e-14 20 -3.18055e-15 -6.36111e-15 1.78906e-15 -3.18055e-15 3.18055e-15 19.7815 -3.00948 -8.30515 24 9.54166e-15 2.38542e-15 20 6.36111e-15 6.36111e-15 2.50439 -23.7543 -53.686 -10.6927 28.4693 -112.645 31.5037 -13.7136 -25.4685 -39.8943 -11.5894 -15.3341 -28.184 10.7294 -19.1592 -1.10951e-14 8.54774e-15 10 -6.19321e-15 8.15017e-15 10 -8.34896e-15 -3.18055e-15 3.97569e-16 -19.9818 0.871897 -2.3964 -24 3.18055e-15 1.59028e-14 -20 -2.38542e-15 4.77083e-15 -8.34896e-15 -3.18055e-15 3.97569e-16 -20 -3.18055e-15 1.32192e-14 -24 -3.18055e-15 1.82882e-14 -20 6.36111e-15 9.54166e-15 -8.34896e-15 -3.18055e-15 3.97569e-16 -19.9748 -1.02565 2.81938 -24 -1.59028e-15 1.31198e-14 -20 -1.59028e-15 6.36111e-15 -8.34896e-15 -3.18055e-15 3.97569e-16 -19.7815 -3.00948 8.30515 -24 3.18055e-15 2.27608e-14 -20 3.18055e-15 1.59028e-14 
0 0 0 0 0 -0 23.1557 -0.767493 -133.818 33.6492 -33.3649 32.4034 -8.16895 12.4052 -0.270663 7.47582 9.84691 46.1416 30.318 -6.78468 18.9055 -19.7424 35.7903 17.5435 3.28482 -25.9563 20.2245 -6.59985 -2.17196 -10.6322 -1.6155 -0.811111 -2.59232 -2.68658 -1.43328 -4.21996 -0.734751 -0.510608 2.63024 -0.390297 -8.07 38.7735 -11.5892 7.39377 26.4209 3.66354 2.15938 1.7894 39.9263 -61.8662 6.33898 41.3738 0.754782 117.784 6.94057 -20.7665 5.03187 28.184 10.7294 19.1592 -7.22191e-15 -3.18055e-15 -10 -2.25419e-15 -4.77083e-15 -10 -9.93923e-17 3.18055e-15 3.97569e-16 19.9818 0.871897 2.3964 24 1.59028e-15 9.54166e-15 20 -3.97569e-15 -0 -9.93923e-17 3.18055e-15 3.97569e-16 20 -9.54166e-15 1.07344e-14 24 1.59028e-15 4.77083e-15 20 -6.36111e-15 3.18055e-15 -9.93923e-17 3.18055e-15 3.97569e-16 19.9748 -1.02565 -2.81938 24 0 9.54166e-15 20 -6.36111e-15 -7.95139e-15 -9.93923e-17 3.18055e-15 3.97569e-16 19.7815 -3.00948 -8.30515 24 3.18055e-15 -2.78299e-15 20 1.59028e-14 6.36111e-15 2.5965 -23.7211 -53.5508 -10.5948 28.2935 -112.839 31.6269 -13.7728 -25.9573 -39.8862 -11.4043 -15.5258 -28.184 10.7294 -19.1592 3.91609e-15 1.04362e-15 10 -4.44068e-15 -1.3418e-15 10 -8.54774e-15 -1.59028e-15 -3.97569e-16 -19.9818 0.871897 -2.3964 -24 4.77083e-15 1.43125e-14 -20 -1.59028e-15 6.36111e-15 -8.54774e-15 -1.59028e-15 -3.97569e-16 -20 -4.77083e-15 1.2921e-14 -24 -3.18055e-15 1.35174e-14 -20 6.36111e-15 1.43125e-14 -8.54774e-15 -1.59028e-15 -3.97569e-16 -19.9748 -1.02565 2.81938 -24 -3.18055e-15 1.23246e-14 -20 -4.77083e-15 3.18055e-15 -8.54774e-15 -1.59028e-15 -3.97569e-16 -19.7815 -3.00948 8.30515 -24 9.54166e-15 2.36057e-14 -20 -1.59028e-15 1.27222e-14 
0 0 0 0 0 -0 23.179 -0.755367 -134.021 33.7538 -33.2887 32.4046 -8.14157 12.4223 -0.306857 7.50657 9.84872 46.3553 30.3567 -6.65014 18.8755 -19.7696 35.7444 17.5509 3.25597 -25.9796 20.3984 -6.60042 -2.27467 -10.7523 -1.61491 -0.838614 -2.61957 -2.68547 -1.47856 -4.26279 -0.732061 -0.507037 2.63619 -0.344801 -8.05918 39.1556 -11.5404 7.56653 26.2661 3.62591 2.22362 1.70123 39.5157 -61.9949 5.81711 40.616 0.792747 118.344 6.87093 -20.8121 5.3382 28.184 10.7294 19.1592 5.91533e-15 -7.95139e-16 -10 4.03702e-16 0 -10 -5.36719e-15 3.18055e-15 -1.98785e-16 19.9818 0.871897 2.3964 24 0 -0 20 -1.59028e-15 3.18055e-15 -5.36719e-15 3.18055e-15 -1.98785e-16 20 -1.27222e-14 9.54166e-15 24 0 1.59028e-15 20 -4.77083e-15 -4.77083e-15 -5.36719e-15 3.18055e-15 -1.98785e-16 19.9748 -1.02565 -2.81938 24 -9.54166e-15 4.77083e-15 20 -4.77083e-15 -7.95139e-15 -5.36719e-15 3.18055e-15 -1.98785e-16 19.7815 -3.00948 -8.30515 24 3.18055e-15 -1.98785e-15 20 1.27222e-14 4.77083e-15 2.685 -23.6917 -53.455 -10.5367 28.1403 -112.981 31.7712 -13.8036 -26.4345 -39.9084 -11.2489 -15.7131 -28.184 10.7294 -19.1592 -1.02512e-14 5.76476e-15 10 -2.69713e-15 4.67144e-15 10 -1.05356e-14 0 1.98785e-16 -19.9818 0.871897 -2.3964 -24 3.18055e-15 1.43125e-14 -20 0 4.77083e-15 -1.05356e-14 0 1.98785e-16 -20 -1.59028e-15 1.19271e-14 -24 -6.36111e-15 1.66979e-14 -20 7.15625e-15 6.36111e-15 -1.05356e-14 0 1.98785e-16 -19.9748 -1.02565 2.81938 -24 -6.36111e-15 1.19271e-14 -20 -6.36111e-15 7.95139e-16 -1.05356e-14 0 1.98785e-16 -19.7815 -3.00948 8.30515 -24 9.54166e-15 2.33075e-14 -20 -1.59028e-15 1.27222e-14 
0 0 0 0 0 -0 23.2034 -0.722329 -134.226 33.8673 -33.2079 32.4098 -8.101 12.4495 -0.358718 7.43526 9.8413 46.5856 30.3839 -6.52669 18.9102 -19.4991 35.8526 17.0133 3.31783 -25.9256 20.9717 -6.61693 -2.38127 -10.8391 -1.61504 -0.866936 -2.63817 -2.68905 -1.5251 -4.29144 -0.72692 -0.500008 2.64219 -0.31242 -7.99051 39.4302 -11.4537 7.69672 26.1665 3.66594 2.3888 2.0291 38.5023 -62.4723 4.62217 39.901 0.813921 118.915 6.75406 -20.6605 5.38263 28.184 10.7294 19.1592 -6.04162e-15 -2.78299e-15 -10 -3.05859e-15 3.97569e-16 -10 -2.48481e-15 0 5.96354e-16 19.9818 0.871897 2.3964 24 -1.59028e-15 6.36111e-15 20 -2.38542e-15 1.59028e-15 -2.48481e-15 0 5.96354e-16 20 -1.43125e-14 7.95139e-15 24 0 3.18055e-15 20 -4.77083e-15 4.77083e-15 -2.48481e-15 0 5.96354e-16 19.9748 -1.02565 -2.81938 24 -7.95139e-15 7.95139e-15 20 -1.59028e-15 -6.36111e-15 -2.48481e-15 0 5.96354e-16 19.7815 -3.00948 -8.30515 24 6.36111e-15 1.98785e-15 20 1.27222e-14 7.95139e-15 2.80232 -23.668 -53.318 -10.4648 27.9985 -113.197 31.9358 -13.8157 -26.8755 -39.9126 -11.1312 -15.8961 -28.184 10.7294 -19.1592 -7.66516e-15 1.11319e-14 10 -5.5863e-15 9.14409e-15 10 -9.7653e-15 0 -1.98785e-16 -19.9818 0.871897 -2.3964 -24 3.18055e-15 1.59028e-14 -20 -2.38542e-15 -1.59028e-15 -9.7653e-15 0 -1.98785e-16 -20 -4.77083e-15 1.35174e-14 -24 -3.18055e-15 1.51076e-14 -20 3.18055e-15 1.11319e-14 -9.7653e-15 0 -1.98785e-16 -19.9748 -1.02565 2.81938 -24 0 1.35174e-14 -20 -4.77083e-15 2.38542e-15 -9.7653e-15 0 -1.98785e-16 -19.7815 -3.00948 8.30515 -24 3.18055e-15 2.27111e-14 -20 -1.59028e-15 1.27222e-14 
0 0 0 0 0 -0 23.2046 -0.699205 -134.428 33.9577 -33.1139 32.3934 -8.06655 12.4813 -0.398751 7.36313 9.82525 46.8182 30.3551 -6.4377 18.9788 -19.3823 35.8677 16.8845 3.52427 -25.7287 21.1926 -6.64135 -2.46505 -10.9423 -1.61934 -0.89062 -2.66145 -2.69634 -1.56449 -4.32772 -0.722138 -0.49407 2.64792 -0.275847 -7.93707 39.7185 -11.3698 7.82044 26.0568 3.69759 2.52442 2.3636 37.5293 -62.9181 3.43269 39.2441 0.793313 119.48 6.92548 -20.7927 5.81553 28.184 10.7294 19.1592 7.55388e-15 -3.37934e-15 -10 1.07093e-14 -1.68967e-15 -10 -1.18028e-14 3.18055e-15 -5.46658e-16 19.9818 0.871897 2.3964 24 -3.18055e-15 -1.59028e-15 20 -1.59028e-15 4.77083e-15 -1.18028e-14 3.18055e-15 -5.46658e-16 20 -6.36111e-15 7.15625e-15 24 1.59028e-15 3.18055e-15 20 -2.38542e-15 1.59028e-15 -1.18028e-14 3.18055e-15 -5.46658e-16 19.9748 -1.02565 -2.81938 24 -4.77083e-15 3.97569e-15 20 -3.18055e-15 -4.77083e-15 -1.18028e-14 3.18055e-15 -5.46658e-16 19.7815 -3.00948 -8.30515 24 9.54166e-15 7.95139e-16 20 1.43125e-14 4.77083e-15 2.9905 -23.7091 -52.9513 -10.3604 27.8409 -113.585 32.1129 -13.8077 -27.267 -39.8373 -11.0656 -16.0748 -28.184 10.7294 -19.1592 -3.70642e-15 5.56597e-15 10 7.48352e-16 4.77083e-15 10 -9.43761e-15 -1.59028e-15 -2.23633e-16 -19.9818 0.871897 -2.3964 -24 5.56597e-15 1.74931e-14 -20 -2.18663e-15 1.59028e-15 -9.43761e-15 -1.59028e-15 -2.23633e-16 -20 -3.18055e-15 1.35174e-14 -24 -1.59028e-15 1.51076e-14 -20 4.77083e-15 7.95139e-15 -9.43761e-15 -1.59028e-15 -2.23633e-16 -19.9748 -1.02565 2.81938 -24 -4.77083e-15 1.27222e-14 -20 0 2.38542e-15 -9.43761e-15 -1.59028e-15 -2.23633e-16 -19.7815 -3.00948 8.30515 -24 6.36111e-15 2.21148e-14 -20 -1.59028e-15 1.35174e-14 
0 0 0 0 0 -0 23.1893 -0.671486 -134.644 34.0468 -32.9874 32.3595 -8.0464 12.4947 -0.421697 7.3745 9.83206 47.043 30.3189 -6.34145 19.0705 -19.3679 35.8567 16.9873 4.12293 -25.1581 21.2445 -6.69007 -2.54995 -11.0138 -1.62972 -0.91494 -2.67639 -2.71377 -1.60504 -4.35024 -0.714571 -0.485294 2.6538 -0.249402 -7.83507 39.9206 -11.2477 7.89979 25.992 3.69292 2.61049 2.23319 37.2764 -63.0156 2.93348 38.6479 0.739944 120.08 6.47988 -19.6684 4.43444 28.184 10.7294 19.1592 -2.79386e-15 -4.96962e-15 -10 3.9599e-15 -7.95139e-16 -10 -1.68967e-15 -3.18055e-15 -5.96354e-16 19.9818 0.871897 2.3964 24 -7.95139e-16 1.59028e-15 20 -3.57812e-15 3.18055e-15 -1.68967e-15 -3.18055e-15 -5.96354e-16 20 -1.43125e-14 1.07344e-14 24 -1.59028e-15 4.77083e-15 20 -4.77083e-15 -0 -1.68967e-15 -3.18055e-15 -5.96354e-16 19.9748 -1.02565 -2.81938 24 3.18055e-15 6.36111e-15 20 -3.18055e-15 -7.95139e-15 -1.68967e-15 -3.18055e-15 -5.96354e-16 19.7815 -3.00948 -8.30515 24 7.95139e-15 7.95139e-16 20 1.27222e-14 8.74653e-15 3.20546 -23.5488 -52.6026 -10.1128 27.5454 -113.989 32.2938 -13.7785 -27.6012 -39.7094 -11.0075 -16.2961 -28.184 10.7294 -19.1592 -3.72879e-15 3.97569e-15 10 -8.04622e-15 5.56597e-15 10 -1.05853e-14 1.59028e-15 -2.98177e-16 -19.9818 0.871897 -2.3964 -24 5.1684e-15 1.59028e-14 -20 -2.98177e-15 3.18055e-15 -1.05853e-14 1.59028e-15 -2.98177e-16 -20 -4.77083e-15 1.35174e-14 -24 7.95139e-16 1.51076e-14 -20 4.77083e-15 7.95139e-15 -1.05853e-14 1.59028e-15 -2.98177e-16 -19.9748 -1.02565 2.81938 -24 -7.95139e-16 1.27222e-14 -20 -3.18055e-15 3.97569e-15 -1.05853e-14 1.59028e-15 -2.98177e-16 -19.7815 -3.00948 8.30515 -24 6.36111e-15 2.19657e-14 -20 -1.59028e-15 1.03368e-14 
0 0 0 0 0 -0 23.1705 -0.646029 -134.869 34.1375 -32.8682 32.3353 -8.01045 12.5238 -0.418876 7.33859 9.84068 47.2515 30.3142 -6.23287 19.1604 -19.3809 35.8532 17.0677 4.30874 -24.9941 21.3097 -6.74415 -2.64692 -11.0651 -1.64128 -0.94191 -2.68581 -2.73316 -1.64975 -4.36371 -0.706193 -0.474906 2.65915 -0.232853 -7.70817 40.0366 -11.1189 7.95877 25.9692 3.64792 2.69531 2.04254 37.1636 -63.0495 2.52321 38.2085 0.692434 120.572 6.73263 -19.537 4.66795 28.184 10.7294 19.1592 3.58859e-15 3.18055e-15 -10 -9.92345e-16 2.38542e-15 -10 -1.97542e-15 -1.59028e-15 2.48481e-16 19.9818 0.871897 2.3964 24 7.95139e-16 4.77083e-15 20 -2.38542e-15 4.77083e-15 -1.97542e-15 -1.59028e-15 2.48481e-16 20 -7.95139e-15 9.93923e-15 24 7.95139e-16 1.59028e-15 20 -5.56597e-15 4.77083e-15 -1.97542e-15 -1.59028e-15 2.48481e-16 19.9748 -1.02565 -2.81938 24 -1.59028e-15 6.36111e-15 20 -4.77083e-15 -4.77083e-15 -1.97542e-15 -1.59028e-15 2.48481e-16 19.7815 -3.00948 -8.30515 24 7.95139e-15 5.2181e-16 20 1.11319e-14 4.77083e-15 3.39975 -23.3975 -52.2941 -9.89998 27.2524 -114.358 32.426 -13.787 -27.9165 -39.5052 -10.9272 -16.4997 -28.184 10.7294 -19.1592 -6.25739e-15 0 10 -4.04821e-15 -7.95139e-16 10 -1.0138e-14 -7.95139e-16 -3.97569e-16 -19.9818 0.871897 -2.3964 -24 4.77083e-15 1.74931e-14 -20 -2.68359e-15 4.77083e-15 -1.0138e-14 -7.95139e-16 -3.97569e-16 -20 -3.18055e-15 1.19271e-14 -24 0 1.51076e-14 -20 4.77083e-15 8.74653e-15 -1.0138e-14 -7.95139e-16 -3.97569e-16 -19.9748 -1.02565 2.81938 -24 -3.18055e-15 1.27222e-14 -20 -3.97569e-15 4.77083e-15 -1.0138e-14 -7.95139e-16 -3.97569e-16 -19.7815 -3.00948 8.30515 -24 6.36111e-15 2.16178e-14 -20 0 1.23246e-14 
